{"title":"Transparency.2010.BRRip.720p.H264.Feel-Free","uid":5958723,"size":1536548821,"categoryP":"video","categoryS":"hd___movies","magnet":"?xt=urn:btih:89eeeac4828fb8a71380abae0e95c8599787b765&amp;dn=Transparency.2010.BRRip.720p.H264.Feel-Free&amp;tr=udp%3A%2F%2Ftracker.openbittorrent.com%3A80&amp;tr=udp%3A%2F%2Fopen.demonii.com%3A1337&amp;tr=udp%3A%2F%2Ftracker.coppersurfer.tk%3A6969&amp;tr=udp%3A%2F%2Fexodus.desync.com%3A6969","seeders":0,"leechers":1,"uploader":"deffjam555","files":8,"time":1289871113,"description":"Genre:Action | Drama | Thriller\nLanguage:English\nIMDb:http://www.imdb.com/title/tt1479398/\nSource:720p.BluRay.x264-MELiTE\n\nGeneral\nComplete name :Transparency.2010.BRRip.720p.H264.Feel-Free\nFormat : MPEG-4\nFormat profile : Base Media\nCodec ID : mp42\nFile size : 1.43 GiB\nDuration : 1h 36mn\nOverall bit rate : 2 113 Kbps\nVideo #1\nCodec ID : avc1\nCodec ID/Info : Advanced Video Coding\nDuration : 1h 36mn\nBit rate mode : Variable\nBit rate : 1 535 Kbps\nWidth : 1 280 pixels\nHeight : 528 pixels\nDisplay aspect ratio : 2.40:1\nFrame rate mode : Constant\nFrame rate : 23.976 fps\nResolution : 24 bits\nColorimetry : 4:2:0\nScan type : Progressive\nBits/(Pixel*Frame) : 0.095\nStream size : 1.04 GiB (73%)\nAudio #2\nID : 2\nFormat : AAC\nFormat/Info : Advanced Audio Codec\nFormat version : Version 4\nFormat profile : LC\nFormat settings, SBR : No\nCodec ID : 40\nDuration : 1h 36mn\nBit rate mode : Constant\nBit rate : 576 Kbps\nChannel(s) : 6 channels\nChannel positions : Front: L C R, Rear: L R, LFE\nSampling rate : 48.0 KHz\nResolution : 16 bits\nStream size : 397 MiB (27%)\n\nPlot:\nAn security guard uncovers more than he bargained for.\n\n\nscreens\n &lt;a href=&quot;\nhttp://www.rapidhdd.com/images/367550vlcsnap-2010-11-15-23h05m05s41.png&quot; rel=&quot;nofollow&quot; target=&quot;_NEW&quot;&gt;\nhttp://www.rapidhdd.com/images/367550vlcsnap-2010-11-15-23h05m05s41.png&lt;/a&gt; &lt;a href=&quot;\nhttp://rapidhdd.com/images/14287vlcsnap-2010-11-15-23h02m33s55.png&quot; rel=&quot;nofollow&quot; target=&quot;_NEW&quot;&gt;\nhttp://rapidhdd.com/images/14287vlcsnap-2010-11-15-23h02m33s55.png&lt;/a&gt; &lt;a href=&quot;\nhttp://www.rapidhdd.com/images/696089vlcsnap-2010-11-15-23h03m50s60.png&quot; rel=&quot;nofollow&quot; target=&quot;_NEW&quot;&gt;\nhttp://www.rapidhdd.com/images/696089vlcsnap-2010-11-15-23h03m50s60.png&lt;/a&gt; &lt;a href=&quot;\nhttp://www.rapidhdd.com/images/493902vlcsnap-2010-11-15-23h04m46s101.png&quot; rel=&quot;nofollow&quot; target=&quot;_NEW&quot;&gt;\nhttp://www.rapidhdd.com/images/493902vlcsnap-2010-11-15-23h04m46s101.png&lt;/a&gt; &lt;a href=&quot;\nhttp://www.rapidhdd.com/images/711126vlcsnap-2010-11-15-23h09m20s19.png&quot; rel=&quot;nofollow&quot; target=&quot;_NEW&quot;&gt;\nhttp://www.rapidhdd.com/images/711126vlcsnap-2010-11-15-23h09m20s19.png&lt;/a&gt;\n","torrent":{"xt":"urn:btih:89eeeac4828fb8a71380abae0e95c8599787b765","amp;dn":"Transparency.2010.BRRip.720p.H264.Feel-Free","amp;tr":["udp%3A%2F%2Ftracker.openbittorrent.com%3A80","udp%3A%2F%2Fopen.demonii.com%3A1337","udp%3A%2F%2Ftracker.coppersurfer.tk%3A6969","udp%3A%2F%2Fexodus.desync.com%3A6969"],"infoHash":"89eeeac4828fb8a71380abae0e95c8599787b765","infoHashBuffer":{"type":"Buffer","data":[137,238,234,196,130,143,184,167,19,128,171,174,14,149,200,89,151,135,183,101]},"announce":[],"urlList":[]}}